<?xml version="1.0" standalone="no"?>
<!DOCTYPE svg PUBLIC "-//W3C//DTD SVG 20010904//EN"
 "http://www.w3.org/TR/2001/REC-SVG-20010904/DTD/svg10.dtd">
<svg version="1.0" xmlns="http://www.w3.org/2000/svg"
 width="16.000000pt" height="16.000000pt" viewBox="0 0 16.000000 16.000000"
 preserveAspectRatio="xMidYMid meet">
<metadata>
Created by potrace 1.11, written by Peter Selinger 2001-2013
</metadata>
<g transform="translate(0.000000,16.000000) scale(0.003125,-0.003125)"
fill="#000000" stroke="none">
<path d="M2497 4634 c-1 -1 -45 -4 -97 -8 -646 -42 -1247 -402 -1597 -955
-132 -208 -239 -469 -279 -676 -4 -22 -8 -44 -9 -50 -36 -157 -42 -554 -10
-705 2 -13 7 -42 11 -64 22 -153 101 -380 194 -567 45 -88 187 -303 241 -364
220 -249 390 -387 642 -520 160 -85 434 -181 567 -199 53 -7 94 -14 135 -22
52 -10 397 -13 470 -3 112 14 152 21 215 34 14 3 35 7 46 9 12 3 66 18 120 34
768 231 1330 880 1453 1677 28 179 30 419 6 572 -2 12 -9 56 -15 98 -24 158
-92 365 -181 550 -213 445 -625 827 -1084 1009 -101 39 -309 101 -370 109 -22
3 -47 8 -55 11 -36 13 -392 39 -403 30z"/>
</g>
</svg>
